<?xml version="1.0" encoding="utf-8"?>
<!-- Generator: Adobe Illustrator 22.1.0, SVG Export Plug-In . SVG Version: 6.00 Build 0)  -->
<svg version="1.1" id="Layer_1" xmlns="http://www.w3.org/2000/svg" xmlns:xlink="http://www.w3.org/1999/xlink" x="0px" y="0px"
	 viewBox="0 0 73 30" style="enable-background:new 0 0 73 30;" xml:space="preserve">
<path class="st0" style="fill:#DE1D54;" d="M3.7,10.1c0,2.1-3.2,2.1-3.2,0C0.4,8,3.7,8,3.7,10.1z M0.7,13.2v11.1h2.7V13.2H0.7z"/>
<path class="st0" style="fill:#DE1D54;" d="M14.1,24.4v-5.8c0-1.7-0.9-3-2.7-3c-1.7,0-2.8,1.4-2.8,3.1v5.7H5.8V13.2h2.5l0.2,1.5c1.1-1.1,2.3-1.7,3.6-1.7
	c2.6,0,4.7,2,4.7,5.4v5.8H14.1z"/>
<path class="st0" style="fill:#DE1D54;" d="M22.2,7.3c0,2.1-3.2,2.1-3.2,0C18.9,5.2,22.2,5.2,22.2,7.3z M19.2,13.2v11.1h2.7V13.2H19.2z"/>
<path class="st0" style="fill:#DE1D54;" d="M28.3,10.1v3.2h3.1v2.4h-3.1v4.8c0,1.1,0.6,1.6,1.4,1.6c0.4,0,0.9-0.1,1.3-0.3l0.8,2.3
	c-0.8,0.3-1.4,0.5-2.3,0.5c-2.4,0.1-4-1.3-4-4.1v-4.8h-2.1v-2.4h2.1v-2.9L28.3,10.1z"/>
<path class="st0" style="fill:#DE1D54;" d="M36.4,2.6c0,2.1-3.2,2.1-3.2,0C33.1,0.5,36.4,0.5,36.4,2.6z M33.4,13.2v11.1h2.7V13.2H33.4z"/>
<path class="st0" style="fill:#DE1D54;" d="M47.4,13.3H50v11.1h-2.6l-0.1-1.6c-0.6,1.3-2.4,1.9-3.6,2c-3.3,0-5.7-2-5.7-5.9c0-3.8,2.5-5.8,5.8-5.8
	c1.5,0,2.9,0.7,3.5,1.8L47.4,13.3z M40.7,18.8c0,2.1,1.5,3.4,3.3,3.4c4.3,0,4.3-6.7,0-6.7C42.2,15.5,40.7,16.7,40.7,18.8z"/>
<path class="st0" style="fill:#DE1D54;" d="M53.3,24.4v-8.5h-2.1v-2.4h2.1v-0.7c0-3,2-4.3,4.2-4.3c1,0,2,0.3,2.9,0.9l-1,2c-0.6-0.4-1.1-0.6-1.7-0.6
	c-0.9,0-1.7,0.6-1.7,2v0.7h3.3v2.4H56v8.5H53.3z"/>
<path class="st0" style="fill:#DE1D54;" d="M72.6,13.3L65.8,29h-3l2.1-4.8l-4.4-10.9h3.2l1.7,4.8l1.1,3.1l1.1-3.1l2-4.9H72.6z"/>
<g>
	<g>
		<path class="st0" style="fill:#DE1D54;" d="M2.1,10.5l0-0.6c0,0,4.3-0.1,10.4-1.1C18.1,7.8,26.5,6,34.6,2.5L34.9,3c-8.2,3.6-16.7,5.4-22.4,6.3
			C6.4,10.3,2.1,10.5,2.1,10.5z"/>
	</g>
</g>
</svg>
